<?xml version="1.0" encoding="utf-8"?>
<!-- Generator: Adobe Illustrator 21.0.0, SVG Export Plug-In . SVG Version: 6.00 Build 0)  -->
<svg version="1.1" xmlns="http://www.w3.org/2000/svg" xmlns:xlink="http://www.w3.org/1999/xlink" x="0px" y="0px"
	 viewBox="0 0 306 306" style="enable-background:new 0 0 306 306;" xml:space="preserve">
<style type="text/css">
	.st0{fill:#8E2823;}
	.st1{fill:#DFA205;}
	.st2{fill:#E8AF2E;}
	.st3{fill:#C17017;}
	.st4{fill:#DD9A07;}
	.st5{fill:#C0392B;}
	.st6{fill:#F6C530;}
	.st7{fill:none;}
	.st8{fill:#F7F7F7;}
	.st9{opacity:0.23;}
</style>
<g id="Layer_1">
	<rect x="68" y="98.8" class="st0" width="172" height="82.8"/>
	<path class="st1" d="M143.8,5.5c0,0,7.5-6.5,23.2-0.8s35.3,19.7,42.7,43.2c7.3,23.5,13.5,45,12.8,46.3c-0.7,1.3-4,0.8-1.5,4.2
		c2.5,3.3,4.2,12.3,4.8,20.5s6.3,80.5-3.3,81.5c-9.7,1-52.7,17.7-90.3-10s-47.7-28-49.3-66s2.5-33.8,2.5-33.8s-4.7-13.7,4.2-25.3
		c0,0,1.5-13.5,3-12s-2.3-9.5,4-13.8c0,0-4.7-6.3,3.2-8.7C99.6,30.6,111.4,4.6,143.8,5.5z"/>
	<path class="st2" d="M145.3,81.4c-4.3,0.8-4.1,7,0.3,7.5c6.4,0.7,12.3,0.3,10.1-4.2C153.9,81,149.7,80.6,145.3,81.4z"/>
	<path class="st2" d="M155,56.4c-0.6,0.5-1,1.2-1.2,2c-0.8,3.6-2.6,14.4,6.3,11.9c10.7-3,3.3-16.5,0.4-16.6
		C158.5,53.6,156.2,55.4,155,56.4z"/>
	<path class="st2" d="M152,31.8c4.8,3.9,4.9,7.5,3.9,10c-1,2.3-3.9,3.1-5.9,1.5c-3.7-3-8.6-8.1-2.1-10.3
		C157.2,29.9,152,31.8,152,31.8z"/>
	<path class="st2" d="M174.9,83.6c1.8,5.9,7,17.1-1.5,12c-5.1-3.1-7.5-7-8.7-9.7c-0.8-2,0.1-4.2,2.1-5c2-0.8,4.7-0.9,7.1,1.9
		C175.2,84.4,174.9,83.6,174.9,83.6z"/>
	<path class="st2" d="M206.5,103.3c1.2-0.6,2.7-0.4,3.8,0.4c2.8,2.1,10.8,8.6,5.8,12.1c-6,4.1-15.6-6.5-12.4-10.3
		C204.8,104.4,205.7,103.7,206.5,103.3z"/>
	<path class="st2" d="M191.2,69.5c0,0-1.8,14.6,13.4,10.9C219.7,76.8,193,63.4,191.2,69.5z"/>
	<path class="st2" d="M173.2,14.2c-2-0.3-3.8,1-4.2,3c-1.1,5.9,1.6,13,9.4,5.9C185.2,16.8,177.8,14.8,173.2,14.2z"/>
	<path class="st2" d="M137.8,12.2c0.2,0.1,0.4,0.3,0.6,0.4c1.7,1.4,11.9,8.6,7,9.4c-2.6,0.4-8.4-1.4-11.8-3.4
		c-4.2-2.5-0.7-8.9,3.6-6.6C137.5,12,137.7,12.1,137.8,12.2z"/>
	<path class="st2" d="M184.5,124.8c-6.6,5.3-20.3,13.6-10.2,15c10.1,1.4,19.2-1.4,17.2-8.2C189.5,124.8,189.9,120.5,184.5,124.8z"/>
	<path class="st3" d="M96.9,135.9c0,0,28.2-19,35.2,2C139,158.9,96.9,135.9,96.9,135.9z"/>
	<path class="st4" d="M118,15.9c-2.7,0.8-9.8,5.6-17.6,12.7c-0.7,1.2-1.1,2-1.1,2c-0.7,0.2-1.3,0.4-1.8,0.7
		c-0.8,0.8-1.6,1.6-2.5,2.5c-1,2.6,1.1,5.5,1.1,5.5c-6.3,4.3-2.5,15.3-4,13.8s-3,12-3,12c-8.8,11.7-4.2,25.3-4.2,25.3
		s-2.1-2.1-2.7,10c0.5,0.6,1.1,1.1,1.7,1.7l10.8,2c0.8-0.2,21.7-7.5,19.5-14.7c0,0,5.8-10.5-1.5-15.2c0,0,6.4-2.3,2.4-10.7
		s4.7-11.5,4.7-11.5s8.3-2.5,3-9.2c-5.3-6.7,6.8-27.2,6.8-27.2S127.2,13.1,118,15.9z"/>
	<path class="st5" d="M64,303.4h176V98.8c0,0-53.3,45.1-88,44.6c-30-0.4-84-44.6-84-44.6L64,303.4z"/>
	<path class="st2" d="M151.1,104.3c0.5,0.2,0.9,0.3,1.4,0.5c13.4,5.2,14.4,11.1,6.5,11.9c-8.2,0.9-22.9-6.1-16.7-11.1
		C148.5,100.6,151.1,104.3,151.1,104.3z"/>
	<path class="st6" d="M147.8,104.4"/>
	<g>
		<rect x="68" y="185.2" class="st7" width="165" height="58.7"/>
		<path class="st8" d="M123.7,238.8c-2.9,0-5-0.8-6.2-2.5c-1.3-1.7-1.9-4.1-1.9-7.4s1-10.8,3.1-22.5h-1.1c-2.7,3.6-5,7.8-6.8,12.8
			c-1.8,5-2.9,9.4-3.3,13.4c-2.2,2.1-4.7,3.1-7.6,3.1c-1.2,0-2.2-0.4-3-1.2c-0.9-0.8-1.7-2.3-2.6-4.3c-1.7-4.2-2.8-12.1-3.6-23.7
			h-1.1c-2.2,9.6-3.3,16.4-3.3,20.3s0.7,7,2,9.1c-2.7,2-5.5,3-8.4,3c-2.9,0-5-0.8-6.2-2.5c-1.3-1.7-1.9-4.2-1.9-7.5
			c0-3.3,1.4-12.8,4.2-28.3l-3.6-7.2c5-3.3,9.6-4.9,13.8-4.9c1.8,0,3.4,0.2,4.7,0.6c1.3,0.4,2.5,1.1,3.7,2.2
			c1.2,1.1,2.2,2.6,2.9,4.5c1.7,4.3,3,10.7,3.8,19h0.8c2.3-6.8,5.5-12.7,9.6-17.6c2.2-2.6,4.9-4.7,8-6.2c3.1-1.5,6.5-2.3,10.1-2.3
			c3.4,0,5.2,2.1,5.2,6.2c0,1.4-0.9,6.5-2.6,15.4s-2.6,14.2-2.6,15.9c0,4.3,0.7,7.6,2,9.7C129.4,237.8,126.6,238.8,123.7,238.8z"/>
		<path class="st8" d="M141.4,226.2c0-2.5,0.6-7,1.8-13.5c1.2-6.4,1.9-10.5,2.2-12.2l-3.6-7.2c5.7-3.2,10.5-4.8,14.5-4.8
			c2,0,3.4,0.7,4.4,2c3.7-1.3,7.1-1.9,10.3-1.9c5.8,0,10.3,1.9,13.5,5.7c3.2,3.8,4.8,8.5,4.8,14.1c0,7.4-2.7,14.2-8.2,20.4
			c-2.6,3-6.1,5.4-10.4,7.2s-8.9,2.7-13.8,2.7c-4.9,0-8.7-1.1-11.5-3.3C142.8,233.4,141.4,230.2,141.4,226.2z M155.6,228.7
			c0.9,0.2,2,0.3,3.1,0.3c4.9,0,8.7-1.8,11.4-5.3c2.7-3.5,4.1-7.8,4.1-13c0-4.2-0.9-7.5-2.8-9.9c-1.9-2.5-4.6-3.7-8.1-3.7
			c-0.5,0-1.4,0.1-2.7,0.3c-0.3,2.3-1.1,7.4-2.4,15.2C156.9,220.6,156,225.9,155.6,228.7z"/>
		<path class="st8" d="M193.5,245.5c-2.4-1.3-3.6-3.1-3.6-5.3s0.8-3.9,2.3-5.1c1.5-1.2,3.1-1.8,4.9-1.8c3.7,0,6.5,1.8,8.4,5.5
			c2.3-0.4,4.1-1.4,5.5-3c1.4-1.6,2.1-3.5,2.1-5.6s-0.8-3.9-2.4-5.5c-1.6-1.5-4-2.3-7.2-2.3c-1.6,0-3.4,0.2-5.5,0.7
			c-1.3-0.1-1.9-0.6-1.9-1.5l2.5-19.8c-1.7-1.9-2.5-3.7-2.5-5.6s0.5-3.3,1.6-4.4c1.1-1.1,2.5-1.6,4.4-1.6c3.1,0,5.5,1.6,7.4,4.7
			c2.3,0,5.3-0.4,9.2-1.2c3.8-0.8,7.4-1.8,10.7-3c0.3,1.3,0.4,2.8,0.4,4.4c0,7.7-4.3,11.5-12.8,11.5c-0.4,0-2.9-0.1-7.2-0.4
			l-0.7,7.6c5.2,0.3,9.7,1.6,13.5,4c2,1.2,3.5,2.8,4.7,4.8c1.2,2,1.7,4.3,1.7,6.9c0,5.1-2.4,9.4-7.1,12.9
			c-4.7,3.5-10.8,5.2-18.3,5.2C199.2,247.6,195.8,246.9,193.5,245.5z"/>
	</g>
</g>
<g id="Layer_3">
	<g id="Layer_2">
	</g>
	<g class="st9">
		<path d="M240,98.8h-18.8c1.5,2.4,2.7,6.8,3.5,11.8C234,103.9,240,98.8,240,98.8z"/>
		<path d="M172.8,139.5c-7-2.1,5.4-9.7,11.7-14.7c5.4-4.3,5-0.1,6.9,6.6c12.5-6.5,24.4-14.4,33.3-20.9c-0.8-5-2-9.4-3.5-11.8
			c-0.1-0.2-0.2-0.3-0.3-0.4c-2.5-3.3,0.8-2.8,1.5-4.2c0.7-1.3-5.5-22.8-12.8-46.3c-7.3-23.5-27-37.5-42.7-43.2
			c-7.8-2.8-13.5-2.6-17.3-1.7v29.5c7-2.3,2.4-0.7,2.4-0.7c4.8,3.9,4.9,7.5,3.9,10c-1,2.3-3.9,3.1-5.9,1.5c-0.1-0.1-0.2-0.2-0.3-0.3
			c0-0.8,0-1.7,0-2.5c0.1,3.6,0.1,7.2,0,10.8v29.7c2.7,0.2,5,1.1,6.1,3.6c1.7,3.5-1.6,4.5-6.1,4.5v9.6v4.4c1.1,0.4,1.5,1.1,1.5,1.1
			c0.5,0.2,0.9,0.3,1.4,0.5c13.4,5.2,14.4,11.1,6.5,11.9c-2.7,0.3-6.2-0.3-9.4-1.4v27.9c0.8,0.1,1.6,0.1,2.4,0.1
			C158.4,143.5,165.5,142,172.8,139.5z M191.2,69.6c1.8-6.1,28.5,7.3,13.4,10.9C189.5,84.2,191.2,69.6,191.2,69.6z M169,17.2
			c0.4-2,2.2-3.3,4.2-3c4.6,0.6,12,2.6,5.2,8.9C170.6,30.3,167.9,23.1,169,17.2z M173.9,83c1.2,1.5,1,0.8,1,0.8
			c1.8,5.9,7,17.1-1.5,12c-5.1-3.1-7.5-7-8.7-9.7c-0.8-2,0.1-4.2,2.1-5C168.8,80.2,171.5,80.1,173.9,83z M153.7,58.5
			c0.2-0.8,0.6-1.5,1.2-2c1.2-1.1,3.5-2.8,5.5-2.7c2.8,0.1,10.3,13.6-0.4,16.6C151.1,72.9,152.9,62.1,153.7,58.5z M216.2,115.8
			c-6,4.1-15.6-6.5-12.4-10.3c1-1.2,1.9-1.8,2.7-2.2c1.2-0.6,2.7-0.4,3.8,0.4C213.2,105.9,221.2,112.4,216.2,115.8z"/>
		<path d="M155.7,84.7c-1.2-2.4-3.4-3.4-6.1-3.6v8.1C154.1,89.2,157.4,88.2,155.7,84.7z"/>
		<path d="M160,70.4c10.7-3,3.3-16.5,0.4-16.6c-1.9-0.1-4.2,1.6-5.5,2.7c-0.6,0.5-1,1.2-1.2,2C152.9,62.1,151.1,72.9,160,70.4z"/>
		<path d="M150,43.3c2,1.6,4.9,0.8,5.9-1.5c1-2.5,1-6.1-3.9-10c0,0,4.6-1.6-2.4,0.7v8.1c0,0.8,0,1.6,0,2.5
			C149.7,43.1,149.8,43.2,150,43.3z"/>
		<path d="M164.8,86c1.1,2.7,3.6,6.6,8.7,9.7c8.5,5.1,3.3-6.1,1.5-12c0,0,0.2,0.7-1-0.8c-2.4-2.9-5.1-2.7-7.1-1.9
			C164.9,81.8,163.9,84,164.8,86z"/>
		<path d="M210.4,103.8c-1.1-0.8-2.6-1-3.8-0.4c-0.8,0.4-1.7,1.1-2.7,2.2c-3.3,3.8,6.4,14.4,12.4,10.3
			C221.2,112.4,213.2,105.9,210.4,103.8z"/>
		<path d="M204.6,80.5c15.1-3.7-11.6-17.1-13.4-10.9C191.2,69.6,189.5,84.2,204.6,80.5z"/>
		<path d="M178.4,23.1c6.8-6.3-0.6-8.2-5.2-8.9c-2-0.3-3.8,1-4.2,3C167.9,23.1,170.6,30.3,178.4,23.1z"/>
		<path d="M184.5,124.9c-6.3,5-18.7,12.6-11.7,14.7c6.2-2.1,12.5-4.9,18.6-8.1C189.5,124.8,189.8,120.6,184.5,124.9z"/>
		<path d="M224.7,110.6c-8.9,6.4-20.8,14.4-33.3,20.9c-6.2,3.2-12.5,6-18.6,8.1c-7.3,2.5-14.3,3.9-20.8,3.9c-0.8,0-1.6-0.1-2.4-0.1
			v38.4v18.5v103.3H240V181.7V98.8C240,98.8,234,103.9,224.7,110.6z"/>
		<path d="M158.9,116.8c7.9-0.9,6.9-6.7-6.5-11.9c-0.4-0.2-0.9-0.3-1.4-0.5c0,0-0.5-0.7-1.5-1.1v12.1
			C152.7,116.5,156.2,117.1,158.9,116.8z"/>
	</g>
</g>
</svg>
